<svg width="91" height="30" viewBox="0 0 91 30" fill="none" xmlns="http://www.w3.org/2000/svg">
<path d="M68.1368 13.6449C68.0707 15.1402 67.7544 16.3087 67.3621 17.1331C66.6024 18.7291 65.0262 19.2245 64.3569 16.9305C63.9922 15.68 63.9751 13.5915 64.2371 11.8463C64.5041 10.0687 65.2496 8.72612 66.4837 8.84715C67.7011 8.96695 68.2709 10.6089 68.1368 13.6451V13.6449ZM47.6148 22.9215C47.5983 25.4057 47.2248 27.5838 46.4239 28.2167C45.2878 29.1138 43.7609 28.4406 44.0771 26.6279C44.3568 25.0237 45.68 23.3854 47.6181 21.3837C47.6181 21.3837 47.6221 21.8402 47.6148 22.9215ZM47.3047 13.6303C47.2352 14.9922 46.8979 16.3601 46.5299 17.1331C45.7703 18.7291 44.1827 19.228 43.5247 16.9305C43.0748 15.3606 43.1826 13.3293 43.405 12.0491C43.6939 10.3882 44.3943 8.84736 45.6515 8.84736C46.874 8.84736 47.477 10.2514 47.3047 13.6303ZM35.4164 13.6098C35.3418 15.0518 35.0731 16.2574 34.6418 17.1331C33.8614 18.7182 32.3174 19.2208 31.6367 16.9305C31.1457 15.2791 31.3128 13.0274 31.5169 11.811C31.82 10.0058 32.5789 8.72612 33.7635 8.84736C34.9803 8.97188 35.5717 10.6089 35.4164 13.6098ZM89.897 15.2943C89.5997 15.2943 89.4638 15.6152 89.3513 16.1552C88.9621 18.0341 88.5525 18.458 88.0246 18.458C87.4348 18.458 86.9048 17.528 86.7684 15.666C86.6614 14.2017 86.6787 11.5063 86.8155 8.82496C86.8436 8.27407 86.6983 7.72893 85.2868 7.19222C84.6795 6.96126 83.7966 6.62119 83.3569 7.73201C82.115 10.8705 81.6289 13.3622 81.5145 14.3739C81.5086 14.4263 81.4472 14.4372 81.4366 14.3148C81.3636 13.5041 81.2008 12.0308 81.1804 8.93592C81.1765 8.33201 81.0544 7.81811 80.4176 7.39729C80.0045 7.124 78.75 6.64112 78.2983 7.21585C77.9069 7.68558 77.4535 8.9501 76.9826 10.4493C76.5998 11.6678 76.3333 12.4917 76.3333 12.4917C76.3333 12.4917 76.3384 9.20448 76.3429 7.95743C76.3448 7.48708 76.0367 7.3303 75.9436 7.30195C75.5255 7.17496 74.7011 6.9627 74.3513 6.9627C73.9195 6.9627 73.8139 7.21503 73.8139 7.58325C73.8139 7.63153 73.7458 11.9113 73.7458 14.9039C73.7458 15.0339 73.7458 15.1757 73.7464 15.3265C73.5077 16.702 72.7333 18.569 71.8912 18.569C71.048 18.569 70.6503 17.7886 70.6503 14.2209C70.6503 12.1395 70.71 11.2344 70.7392 9.72907C70.7563 8.86195 70.7893 8.19619 70.7873 8.04516C70.781 7.58181 70.0159 7.34818 69.6596 7.26188C69.3018 7.17496 68.9909 7.14106 68.7481 7.15564C68.4044 7.17619 68.1612 7.41188 68.1612 7.73653C68.1612 7.91078 68.1631 8.2416 68.1631 8.2416C67.7205 7.51338 67.0085 7.00667 66.5349 6.85975C65.259 6.46318 63.9278 6.81455 62.9236 8.28558C62.1255 9.45414 61.6444 10.778 61.4549 12.6798C61.3166 14.0702 61.3617 15.48 61.6078 16.6724C61.3105 18.0179 60.7587 18.569 60.1543 18.569C59.2769 18.569 58.6409 17.0702 58.7147 14.4775C58.7634 12.7722 59.0895 11.5755 59.4457 9.84414C59.5977 9.10606 59.4742 8.71975 59.1646 8.34948C58.8806 8.00982 58.2754 7.83619 57.4059 8.04948C56.7864 8.20174 55.9005 8.36551 55.0901 8.49126C55.0901 8.49126 55.1391 8.28681 55.1792 7.92681C55.39 6.03845 53.4297 6.19153 52.8041 6.79462C52.4309 7.15482 52.1767 7.57955 52.0804 8.34311C51.9273 9.55503 52.8714 10.1267 52.8714 10.1267C52.5619 11.6111 51.8024 13.55 51.0184 14.9519C50.5986 15.703 50.2775 16.2596 49.8627 16.8512C49.8492 14.4771 49.864 12.103 49.9071 9.72927C49.9241 8.86215 49.9573 8.21407 49.9555 8.06284C49.9508 7.72421 49.7618 7.59599 49.3686 7.43407C49.0208 7.29064 48.6098 7.1916 48.1832 7.15667C47.645 7.11311 47.3208 7.41167 47.3294 7.7651C47.331 7.83188 47.331 8.2416 47.331 8.2416C46.8883 7.51338 46.1764 7.00667 45.7027 6.85975C44.4269 6.46318 43.0956 6.81455 42.0914 8.28558C41.2935 9.45414 40.771 11.0943 40.6228 12.6654C40.485 14.1294 40.5103 15.3736 40.6983 16.4219C40.4956 17.4715 39.9122 18.5692 39.2529 18.5692C38.4096 18.5692 37.9299 17.7886 37.9299 14.2209C37.9299 12.1395 37.9896 11.2344 38.019 9.72907C38.0361 8.86215 38.0689 8.19619 38.0671 8.04516C38.0608 7.58181 37.2955 7.34838 36.9392 7.26188C36.5667 7.17147 36.2449 7.13859 35.9978 7.1577C35.672 7.18297 35.4427 7.48852 35.4427 7.7164V8.2416C35.0001 7.51338 34.2881 7.00667 33.8145 6.85975C32.5386 6.46318 31.2148 6.8203 30.2032 8.28558C29.5436 9.24085 29.0095 10.2999 28.7347 12.6444C28.6552 13.3219 28.6201 13.9566 28.6248 14.5494C28.3618 16.2335 27.1997 18.1745 26.2495 18.1745C25.6934 18.1745 25.1636 17.0452 25.1636 14.6388C25.1636 11.4333 25.3533 6.86921 25.3854 6.42948C25.3854 6.42948 26.5861 6.40811 26.8186 6.40523C27.4176 6.39825 27.96 6.41325 28.7579 6.3703C29.1579 6.34914 29.5434 4.84564 29.1304 4.65969C28.9432 4.57544 27.6204 4.50188 27.0959 4.49016C26.655 4.47989 25.4275 4.38455 25.4275 4.38455C25.4275 4.38455 25.5376 1.35516 25.5633 1.03523C25.5849 0.768315 25.2551 0.631055 25.0663 0.547836C24.6066 0.344411 24.1953 0.246808 23.708 0.141603C23.0343 -0.00387653 22.7289 0.138521 22.6692 0.733384C22.5793 1.63647 22.5328 4.2816 22.5328 4.2816C22.0385 4.2816 20.35 4.18051 19.8558 4.18051C19.3965 4.18051 18.9006 6.24845 19.5358 6.27393C20.2664 6.30352 21.5398 6.32941 22.3838 6.35571C22.3838 6.35571 22.3461 10.995 22.3461 12.4276C22.3461 12.5797 22.3469 12.7266 22.3477 12.869C21.8831 15.4036 20.2468 16.7729 20.2468 16.7729C20.5982 15.096 19.8803 13.8366 18.5874 12.7706C18.111 12.3779 17.1706 11.6343 16.1184 10.8193C16.1184 10.8193 16.7277 10.1906 17.2683 8.92564C17.6511 8.02934 17.6678 7.00421 16.7277 6.77797C15.1747 6.404 13.8943 7.59804 13.5123 8.87284C13.2163 9.86037 13.3741 10.5929 13.954 11.354C13.9962 11.4097 14.0423 11.4666 14.0894 11.5237C13.739 12.231 13.2573 13.1834 12.8494 13.9219C11.7172 15.9726 10.862 17.5942 10.2156 17.5942C9.699 17.5942 9.70587 15.9475 9.70587 14.4058C9.70587 13.0767 9.7997 11.0785 9.87468 9.00989C9.89942 8.32564 9.5724 7.93585 9.02475 7.58284C8.69184 7.36832 7.98148 6.94667 7.57005 6.94667C6.9541 6.94667 5.17729 7.03441 3.49862 12.118C3.28703 12.7587 2.87128 13.9262 2.87128 13.9262L2.90721 7.81297C2.90721 7.66955 2.83419 7.53105 2.66714 7.43633C2.38429 7.27544 1.62878 6.94667 0.956878 6.94667C0.636927 6.94667 0.476951 7.10242 0.476951 7.41311L0.418457 16.9774C0.418457 17.7041 0.436516 18.5519 0.505217 18.9226C0.573526 19.2937 0.684429 19.5958 0.821439 19.7754C0.958645 19.9548 1.11705 20.0918 1.37831 20.1481C1.62151 20.2005 2.95314 20.3795 3.02243 19.8469C3.10526 19.2082 3.1086 18.5178 3.80778 15.9424C4.8964 11.9326 6.31557 9.97647 6.98295 9.28153C7.09974 9.1603 7.23283 9.1529 7.22635 9.3516C7.19809 10.2306 7.09778 12.4276 7.03045 14.2934C6.84967 19.2876 7.71747 20.2132 8.95782 20.2132C9.90668 20.2132 11.2442 19.2263 12.6779 16.7281C13.4767 15.3359 14.2719 13.9414 15.0634 12.5445C15.4978 12.9656 15.9856 13.4187 16.4727 13.9028C17.6053 15.028 17.9771 16.0973 17.7304 17.1115C17.5419 17.8868 16.8312 18.6859 15.5665 17.9094C15.1978 17.6828 15.0404 17.5075 14.6698 17.2521C14.4708 17.115 14.1667 17.0739 13.9844 17.2178C13.5109 17.5913 13.2401 18.0668 13.0854 18.6553C12.935 19.228 13.4829 19.5306 14.0509 19.7955C14.5399 20.0234 15.591 20.2299 16.2611 20.2533C18.8728 20.3448 20.965 18.9333 22.4215 15.2924C22.6822 18.4369 23.7916 20.2161 25.7193 20.2161C27.0082 20.2161 28.3003 18.4722 28.8655 16.7567C29.0276 17.4559 29.2678 18.0641 29.578 18.5785C31.0633 21.0422 33.9448 20.512 35.3923 18.4198C35.8398 17.7734 35.9079 17.5412 35.9079 17.5412C36.1191 19.5165 37.6388 20.2067 38.5087 20.2067C39.4833 20.2067 40.4893 19.7244 41.1946 18.0625C41.2772 18.2429 41.3675 18.4153 41.466 18.5785C42.9514 21.0422 45.8331 20.512 47.2805 18.4198C47.3488 18.3216 47.4081 18.2328 47.4597 18.1527L47.5021 19.4503L46.1695 20.7298C43.9357 22.873 42.239 24.4983 42.1142 26.3914C41.9552 28.8052 43.8243 29.7023 45.2403 29.8198C46.7413 29.9445 48.0292 29.0758 48.8194 27.86C49.5151 26.7896 49.9705 24.4862 49.9369 22.2113C49.9237 21.3002 49.9016 20.1419 49.8845 18.9002C50.6687 17.947 51.5522 16.7421 52.3656 15.3321C53.252 13.7953 54.2021 11.7315 54.6885 10.1252C54.6885 10.1252 55.5139 10.1328 56.3948 10.0724C56.6765 10.0531 56.7575 10.1135 56.7053 10.3295C56.6425 10.5908 55.5924 14.8305 56.5509 17.6548C57.2067 19.5884 58.6853 20.2102 59.5619 20.2102C60.5883 20.2102 61.57 19.3989 62.096 18.1944C62.1596 18.3286 62.2258 18.4585 62.2982 18.5787C63.7835 21.0424 66.655 20.5087 68.1127 18.4198C68.4417 17.9485 68.6283 17.5412 68.6283 17.5412C68.941 19.5857 70.4599 20.2172 71.3298 20.2172C72.2359 20.2172 73.0961 19.8282 73.7937 18.0999C73.8231 18.861 73.8689 19.4832 73.9413 19.6792C73.9854 19.7994 74.243 19.9498 74.4302 20.0226C75.2594 20.3443 76.1046 20.1923 76.4175 20.1261C76.6342 20.0801 76.8032 19.898 76.8263 19.4283C76.8872 18.1944 76.8499 16.1213 77.2071 14.5804C77.8068 11.9949 78.3664 10.9919 78.6318 10.4955C78.7804 10.2171 78.9478 10.1713 78.9539 10.4657C78.9665 11.0616 78.9947 12.8109 79.2271 15.1615C79.3979 16.89 79.6256 17.9119 79.8009 18.2355C80.301 19.1602 80.9184 19.2039 81.4213 19.2039C81.7412 19.2039 82.4102 19.1115 82.3503 18.523C82.3211 18.2361 82.3721 16.4632 82.9635 13.9159C83.3496 12.2524 83.9934 10.7495 84.2256 10.1998C84.3114 9.99722 84.3513 10.1569 84.3497 10.1881C84.3008 11.3337 84.1911 15.0808 84.6369 17.1302C85.2414 19.9065 86.9896 20.2172 87.5989 20.2172C88.8995 20.2172 89.9632 19.1815 90.3214 16.4565C90.4078 15.8006 90.28 15.2943 89.897 15.2943Z" fill="#656566"/>
</svg>
